/* XPM */
static char*kpl[]={
"32 32 6 1",
"c c #808080",
"b c #000080",
"a c #c0c0c0",
"# c #000000",
". c None",
"d c #ffffff",
"................................",
"................................",
"###############################.",
"#abbbbbbbbbbbbbbbbbbbbbbbbbaba#c",
"#bbbbbbbbbbbbbbbbbbbbbbbbbbbbb#c",
"#ddddddddddddddddddddddddddddd#c",
"#dd##ddddddddddddddddddddddddd#c",
"#ddd#d#####################ddd#c",
"#dd##d#dddcdddcdddcdddcddd#ddd#c",
"#ddddd#dddcdddcdddcdddcddd#ddd#c",
"#ddd#d#dddcdddcdddcdddcd###ddd#c",
"#ddd#d#cccccccccccccc###cc#ddd#c",
"#ddd#d#dddcdddcddd###dcddd#ddd#c",
"#ddddd#dddcdddcd##cdddcddd#ddd#c",
"#dd##d#dddcdddc#ddcdddcddd#ddd#c",
"#dd##d#ccccccc#ccccccccccc#ddd#c",
"#dd##d#dddcdd#cdddcdddcddd#ddd#c",
"#ddddd#dddcd#dcdddcdddcddd#ddd#c",
"#ddd#d#dddc#ddcdddcdddcddd#ddd#c",
"#dd##d#ccc#ccccccccccccccc#ddd#c",
"#ddd#d#dd#cdddcdddcdddcddd#ddd#c",
"#ddddd#d#dcdddcdddcdddcddd#ddd#c",
"#ddd#d##ddcdddcdddcdddcddd#ddd#c",
"#dd##d#####################ddd#c",
"#ddd#ddddddddddddddddddddddddd#c",
"#ddddd#ddd#ddd#dd##ddd#ddd#ddd#c",
"#dddd##ddd#ddd#ddd#dd##ddd#ddd#c",
"#ddddd#ddd#ddd#dd##ddd#dd##ddd#c",
"#ddddddddddddddddddddddddddddd#c",
"###############################c",
".ccccccccccccccccccccccccccccccc",
"................................"};
