/* XPM */
static char * arrow_up_xpm[] = {
"13 8 3 1",
" 	c None",
".	c #1B1B1C",
"+	c #FCFCFA",
"             ",
"      .      ",
"     ...     ",
"    .....    ",
"   .......   ",
"  .........  ",
" ........... ",
"             "};
