/* XPM */
static char * arrow_down_xpm[] = {
"13 8 3 1",
" 	c None",
".	c #1B1B1C",
"+	c #FCFCFA",
"             ",
" ........... ",
"  .........  ",
"   .......   ",
"    .....    ",
"     ...     ",
"      .      ",
"             "};
