/* XPM */
static char *hexbig[] = {
/* width height num_colors chars_per_pixel */
"    80    11      200            2",
/* colors */
".. c #5353fb",
".# c #5353fa",
".a c #5454fc",
".b c #5454fd",
".c c #5454fe",
".d c #5555ff",
".e c #5c5cfe",
".f c #5e5eff",
".g c #6464fe",
".h c #6d6dfd",
".i c #7777fe",
".j c #7c7cfe",
".k c #8585fc",
".l c #8b8afa",
".m c #9191ff",
".n c #9d9dfd",
".o c #a3a2fb",
".p c #a8a8fd",
".q c #afaefd",
".r c #b7b8fd",
".s c #bfbffe",
".t c #cac4f9",
".u c #cbcdfc",
".v c #ffffff",
".w c #fefefe",
".x c #fdfdfd",
".y c #fcfcfc",
".z c #fbfbfb",
".A c #fafafa",
".B c #f9f9f9",
".C c #9192fc",
".D c #7272ff",
".E c #5353f9",
".F c #6a6afd",
".G c #8585fc",
".H c #f9d3a2",
".I c #fab963",
".J c #fbb04f",
".K c #fbb04f",
".L c #f3e6e1",
".M c #d8d3ef",
".N c #e29d71",
".O c #f1a15c",
".P c #deaa93",
".Q c #de9048",
".R c #841f2b",
".S c #3d3425",
".T c #5252f8",
".U c #f4a355",
".V c #f9a858",
".W c #f3a25b",
".X c #f8f8f8",
".Y c #ad7453",
".Z c #3b2a22",
".0 c #f7f7f7",
".1 c #664450",
".2 c #f9a858",
".3 c #f1a456",
".4 c #f5f5f5",
".5 c #f4f4f4",
".6 c #39231e",
".7 c #f19f5a",
".8 c #d8854a",
".9 c #f1a15c",
"#. c #06120a",
"## c #111a37",
"#a c #9d97ef",
"#b c #f4a355",
"#c c #8b8afa",
"#d c #ec415a",
"#e c #fa4358",
"#f c #f63348",
"#g c #54447d",
"#h c #d53144",
"#i c #796fce",
"#j c #f1a15c",
"#k c #4658be",
"#l c #1e1e57",
"#m c #6364f5",
"#n c #5b57e6",
"#o c #262685",
"#p c #494ad8",
"#q c #695cc7",
"#r c #7c7cfe",
"#s c #5252f7",
"#t c #282669",
"#u c #1e1649",
"#v c #282669",
"#w c #7272ff",
"#x c #5252f7",
"#y c #2c163e",
"#z c #232361",
"#A c #252577",
"#B c #23238f",
"#C c #1e1e96",
"#D c #1e1e89",
"#E c #010139",
"#F c #000031",
"#G c #010040",
"#H c #010040",
"#I c #030248",
"#J c #04044e",
"#K c #030248",
"#L c #000028",
"#M c #00004b",
"#N c #0b0b62",
"#O c #000042",
"#P c #00003b",
"#Q c #080872",
"#R c #0f0f6e",
"#S c #04044e",
"#T c #010159",
"#U c #08085f",
"#V c #000056",
"#W c #00001d",
"#X c #010159",
"#Y c #04044e",
"#Z c #0b0a58",
"#0 c #0f0e4d",
"#1 c #000030",
"#2 c #0a0a64",
"#3 c #0f0e4d",
"#4 c #0e0d62",
"#5 c #0b0b59",
"#6 c #00001d",
"#7 c #0e073c",
"#8 c #00001d",
"#9 c #1e1649",
"a. c #08085f",
"a# c #00004b",
"aa c #16166f",
"ab c #111257",
"ac c #080878",
"ad c #010159",
"ae c #0a0a64",
"af c #0a0a64",
"ag c #08087f",
"ah c #0f0f6e",
"ai c #000017",
"aj c #090979",
"ak c #0a096c",
"al c #060693",
"am c #080872",
"an c #07078c",
"ao c #0b0b69",
"ap c #090971",
"aq c #0f0f6e",
"ar c #07078c",
"as c #02026b",
"at c #0a096c",
"au c #070776",
"av c #090971",
"aw c #080872",
"ax c #0a096c",
"ay c #080872",
"az c #10107b",
"aA c #07078c",
"aB c #070776",
"aC c #07078c",
"aD c #080884",
"aE c #08087c",
"aF c #080884",
"aG c #0a0a64",
"aH c #08087f",
"aI c #040497",
"aJ c #1e1e66",
"aK c #19167e",
"aL c #080884",
"aM c #251f6b",
"aN c #212077",
"aO c #090979",
"aP c #0303a4",
"aQ c #08087c",
"aR c #0f0f87",
"aS c #10107b",
"aT c #10107b",
"aU c #1c1c72",
"aV c #151587",
"aW c #23237e",
"aX c #1c1964",
"aY c #090979",
"aZ c #19167e",
"a0 c #1a1a84",
"a1 c #1e1e89",
"a2 c #1d1d7e",
"a3 c #0303a4",
"a4 c #1c1c72",
"a5 c #0e0e95",
"a6 c #151595",
"a7 c #1e1e89",
"a8 c #1c1c72",
"a9 c #1b0b4b",
"b. c #1d1d7e",
"b# c #252577",
"ba c #080884",
"bb c #1e1649",
"bc c #251f6b",
"bd c #f8b878",
"be c #ffffff",
"bf c #000000",
/* pixels */
".H.H.H.H.H.H.H.H.P.P.P.P.P.P.P.P.N.N.N.N.N.N.N.N#f#f#f#f#f#f#f#f#f#f#f#f#f#f#f#f#f#f#f#f#f#f#f#f#e#e#e#e#e#e#e#e#f#f#f#f#f#f#f#f#f#f#f#f#f#f#f#f#e#e#e#e#e#e#e#e",
".5.5.5.5.5.5.5.5.M.M.M.M.M.M.M.M.P.P.P.P.P.P.P.P#e#e#e#e#e#e#e#e#e#e#e#e#e#e#e#e#e#e#e#e#e#e#e#e#e#e#e#e#e#e#e#e#f#f#f#f#f#f#f#f#e#e#e#e#e#e#e#e#e#e#e#e#e#e#e#e",
".P.P.P.P.P.P.P.P#g#g#g#g#g#g#g#g.X.X.X.X.X.X.X.X.N.N.N.N.N.N.N.N#e#e#e#e#e#e#e#e#f#f#f#f#f#f#f#f#f#f#f#f#f#f#f#f#e#e#e#e#e#e#e#e#f#f#f#f#f#f#f#f#f#f#f#f#f#f#f#f",
".v.v.v.v.v.v.v.v.v.v.v.v.v.v.v.v.L.L.L.L.L.L.L.L#f#f#f#f#f#f#f#f#e#e#e#e#e#e#e#e#d#d#d#d#d#d#d#d#f#f#f#f#f#f#f#f#e#e#e#e#e#e#e#e#e#e#e#e#e#e#e#e#e#e#e#e#e#e#e#e",
"#e#e#e#e#e#e#e#e#e#e#e#e#e#e#e#e#e#e#e#e#e#e#e#e#e#e#e#e#e#e#e#e#f#f#f#f#f#f#f#f#f#f#f#f#f#f#f#f#e#e#e#e#e#e#e#e#f#f#f#f#f#f#f#f#e#e#e#e#e#e#e#e#e#e#e#e#e#e#e#e",
"#e#e#e#e#e#e#e#e#f#f#f#f#f#f#f#f#f#f#f#f#f#f#f#f#f#f#f#f#f#f#f#f#d#d#d#d#d#d#d#d#f#f#f#f#f#f#f#f#e#e#e#e#e#e#e#e#e#e#e#e#e#e#e#e#e#e#e#e#e#e#e#e#e#e#e#e#e#e#e#e",
"#f#f#f#f#f#f#f#f#f#f#f#f#f#f#f#f#d#d#d#d#d#d#d#d#e#e#e#e#e#e#e#e#e#e#e#e#e#e#e#e#e#e#e#e#e#e#e#e#f#f#f#f#f#f#f#f#e#e#e#e#e#e#e#e#e#e#e#e#e#e#e#e#f#f#f#f#f#f#f#f",
"#f#f#f#f#f#f#f#f#d#d#d#d#d#d#d#d#e#e#e#e#e#e#e#e#e#e#e#e#e#e#e#e#e#e#e#e#e#e#e#e#e#e#e#e#e#e#e#e#d#d#d#d#d#d#d#d#.#.#.#.#.#.#.#.#.#.#.#.#.#.#.#..6.6.6.6.6.6.6.6",
"#f#f#f#f#f#f#f#f#e#e#e#e#e#e#e#e#e#e#e#e#e#e#e#e#e#e#e#e#e#e#e#e#e#e#e#e#e#e#e#e#e#e#e#e#e#e#e#e.1.1.1.1.1.1.1.1#.#.#.#.#.#.#.#.#.#.#.#.#.#.#.#.#.#.#.#.#.#.#.#.",
"#d#d#d#d#d#d#d#d#f#f#f#f#f#f#f#f#f#f#f#f#f#f#f#f#e#e#e#e#e#e#e#e#f#f#f#f#f#f#f#f#f#f#f#f#f#f#f#f#d#d#d#d#d#d#d#d.6.6.6.6.6.6.6.6#.#.#.#.#.#.#.#.#.#.#.#.#.#.#.#.",
"#h#h#h#h#h#h#h#h#h#h#h#h#h#h#h#h#f#f#f#f#f#f#f#f#f#f#f#f#f#f#f#f#d#d#d#d#d#d#d#d#f#f#f#f#f#f#f#f#h#h#h#h#h#h#h#h#h#h#h#h#h#h#h#h.R.R.R.R.R.R.R.R.6.6.6.6.6.6.6.6"
};
