/* XPM */
static char * palette_xpm[] = {
"99 20 84 1",
" 	g None",
".	g #000000",
"+	g #030303",
"@	g #060606",
"#	g #090909",
"$	g #0C0C0C",
"%	g #0F0F0F",
"&	g #121212",
"*	g #151515",
"=	g #181818",
"-	g #1B1B1B",
";	g #1F1F1F",
">	g #222222",
",	g #252525",
"'	g #282828",
")	g #2B2B2B",
"!	g #2E2E2E",
"~	g #313131",
"{	g #343434",
"]	g #373737",
"^	g #3B3B3B",
"/	g #3E3E3E",
"(	g #414141",
"_	g #444444",
":	g #474747",
"<	g #4A4A4A",
"[	g #4D4D4D",
"}	g #505050",
"|	g #535353",
"1	g #575757",
"2	g #5A5A5A",
"3	g #5D5D5D",
"4	g #606060",
"5	g #636363",
"6	g #666666",
"7	g #696969",
"8	g #6C6C6C",
"9	g #6F6F6F",
"0	g #737373",
"a	g #767676",
"b	g #797979",
"c	g #7C7C7C",
"d	g #7F7F7F",
"e	g #828282",
"f	g #858585",
"g	g #888888",
"h	g #8B8B8B",
"i	g #8F8F8F",
"j	g #929292",
"k	g #959595",
"l	g #989898",
"m	g #9B9B9B",
"n	g #9E9E9E",
"o	g #A1A1A1",
"p	g #A4A4A4",
"q	g #A7A7A7",
"r	g #ABABAB",
"s	g #AEAEAE",
"t	g #B1B1B1",
"u	g #B4B4B4",
"v	g #B7B7B7",
"w	g #BABABA",
"x	g #BDBDBD",
"y	g #C0C0C0",
"z	g #C3C3C3",
"A	g #C7C7C7",
"B	g #CACACA",
"C	g #CDCDCD",
"D	g #D0D0D0",
"E	g #D3D3D3",
"F	g #D6D6D6",
"G	g #D9D9D9",
"H	g #DCDCDC",
"I	g #DFDFDF",
"J	g #E3E3E3",
"K	g #E6E6E6",
"L	g #E9E9E9",
"M	g #ECECEC",
"N	g #EFEFEF",
"O	g #F2F2F2",
"P	g #F5F5F5",
"Q	g #F8F8F8",
"R	g #FBFBFB",
"S	g #FEFEFE",
".........+@#$%&*=-;>,')!~{]^/(_:<[}|1234567890abcdefghijklmnopqrstuvwxyzABCDEFGHIJKLMNOPQRSSSSSSSSS",
".........+@#$%&*=-;>,')!~{]^/(_:<[}|1234567890abcdefghijklmnopqrstuvwxyzABCDEFGHIJKLMNOPQRSSSSSSSSS",
".........+@#$%&*=-;>,')!~{]^/(_:<[}|1234567890abcdefghijklmnopqrstuvwxyzABCDEFGHIJKLMNOPQRSSSSSSSSS",
".........+@#$%&*=-;>,')!~{]^/(_:<[}|1234567890abcdefghijklmnopqrstuvwxyzABCDEFGHIJKLMNOPQRSSSSSSSSS",
".........+@#$%&*=-;>,')!~{]^/(_:<[}|1234567890abcdefghijklmnopqrstuvwxyzABCDEFGHIJKLMNOPQRSSSSSSSSS",
".........+@#$%&*=-;>,')!~{]^/(_:<[}|1234567890abcdefghijklmnopqrstuvwxyzABCDEFGHIJKLMNOPQRSSSSSSSSS",
".........+@#$%&*=-;>,')!~{]^/(_:<[}|1234567890abcdefghijklmnopqrstuvwxyzABCDEFGHIJKLMNOPQRSSSSSSSSS",
".........+@#$%&*=-;>,')!~{]^/(_:<[}|1234567890abcdefghijklmnopqrstuvwxyzABCDEFGHIJKLMNOPQRSSSSSSSSS",
".........+@#$%&*=-;>,')!~{]^/(_:<[}|1234567890abcdefghijklmnopqrstuvwxyzABCDEFGHIJKLMNOPQRSSSSSSSSS",
".........+@#$%&*=-;>,')!~{]^/(_:<[}|1234567890abcdefghijklmnopqrstuvwxyzABCDEFGHIJKLMNOPQRSSSSSSSSS",
".........+@#$%&*=-;>,')!~{]^/(_:<[}|1234567890abcdefghijklmnopqrstuvwxyzABCDEFGHIJKLMNOPQRSSSSSSSSS",
".........+@#$%&*=-;>,')!~{]^/(_:<[}|1234567890abcdefghijklmnopqrstuvwxyzABCDEFGHIJKLMNOPQRSSSSSSSSS",
".........+@#$%&*=-;>,')!~{]^/(_:<[}|1234567890abcdefghijklmnopqrstuvwxyzABCDEFGHIJKLMNOPQRSSSSSSSSS",
".........+@#$%&*=-;>,')!~{]^/(_:<[}|1234567890abcdefghijklmnopqrstuvwxyzABCDEFGHIJKLMNOPQRSSSSSSSSS",
".........+@#$%&*=-;>,')!~{]^/(_:<[}|1234567890abcdefghijklmnopqrstuvwxyzABCDEFGHIJKLMNOPQRSSSSSSSSS",
".........+@#$%&*=-;>,')!~{]^/(_:<[}|1234567890abcdefghijklmnopqrstuvwxyzABCDEFGHIJKLMNOPQRSSSSSSSSS",
".........+@#$%&*=-;>,')!~{]^/(_:<[}|1234567890abcdefghijklmnopqrstuvwxyzABCDEFGHIJKLMNOPQRSSSSSSSSS",
".........+@#$%&*=-;>,')!~{]^/(_:<[}|1234567890abcdefghijklmnopqrstuvwxyzABCDEFGHIJKLMNOPQRSSSSSSSSS",
".........+@#$%&*=-;>,')!~{]^/(_:<[}|1234567890abcdefghijklmnopqrstuvwxyzABCDEFGHIJKLMNOPQRSSSSSSSSS",
".........+@#$%&*=-;>,')!~{]^/(_:<[}|1234567890abcdefghijklmnopqrstuvwxyzABCDEFGHIJKLMNOPQRSSSSSSSSS"};
