/* XPM */
static const char* fileprint[]={
"16 16 6 1",
"b c #808080",
"d c #c0c0c0",
"# c #000000",
". c None",
"a c #ffffff",
"c c #ff0000",
"...##########...",
"...#aaaaaaaa#...",
"...#a#b#aaaa#...",
"...#aaaaaaaa#...",
"...#a#b#aaaa#...",
"...#aaaaaaaa#...",
"...#a#b#b#ba#...",
"...#aaaaaaaa#...",
"################",
"#aaaaaaaaaaaaaa#",
"#accddddddddddd#",
"#addddddddddddd#",
"#addddddddddddd#",
"################",
".#bbbbbbbbbbbb#.",
".##############."};
