/* XPM */
static const char *prncolor[]={
"16 16 10 1",
"f c #808080",
"e c #a0a0a0",
". c #000080",
"b c #ffff00",
"h c #303030",
"# c #0000ff",
"g c #585858",
"d c #dcdcdc",
"c c #ffffff",
"a c #ff0000",
"...###aaabbbbccc",
"..###aaabbbbcccc",
".###aaabbbbccccd",
"###aaabbbbccccdd",
"##aaabbbbccccdde",
"#aaabbbbccccddee",
"aaabbbbccccddeee",
"aabbbbccccddeeef",
"abbbbccccddeeeff",
"bbbbccccddeeefff",
"bbbccccddeeefffg",
"bbccccddeeefffgg",
"bccccddeeefffggg",
"ccccddeeefffgggh",
"cccddeeefffggghh",
"ccddeeefffggghhh"};
